<svg width="250" height="250" viewBox="0 0 250 250" fill="none" xmlns="http://www.w3.org/2000/svg">
<rect width="250" height="250" rx="16" fill="#1A1A1A"/>
<g clip-path="url(#clip0_12_2)">
<path d="M133 171.44L144.904 124.72L156.808 78H174.984L198.792 171.44H184.84L176.52 136.368H155.272L147.08 171.44H133ZM155.272 136.368H176.52L170.12 109.36C169.011 104.581 168.072 100.443 167.304 96.944C166.621 93.36 166.152 90.928 165.896 89.648C165.64 90.928 165.171 93.36 164.488 96.944C163.805 100.443 162.867 104.539 161.672 109.232L155.272 136.368Z" fill="white"/>
<path d="M62 171.44V124.72V78H116.912V90.288H62V116.784H112.432V128.944H62V159.152H116.912V171.44H62Z" fill="white"/>
</g>
<defs>
<clipPath id="clip0_12_2">
<rect width="136.792" height="93.44" fill="white" transform="translate(62 78)"/>
</clipPath>
</defs>
</svg>
